<svg width="22" height="22" viewBox="0 0 22 22" fill="none" xmlns="http://www.w3.org/2000/svg">
<path d="M20.9824 8.25294C20.9401 8.12335 20.8281 8.02884 20.6931 8.00915L14.217 7.06798L11.3209 1.19976C11.2607 1.07733 11.1361 1 11.0001 1C10.8641 1 10.7391 1.07733 10.6793 1.19976L7.78282 7.06834L1.30672 8.00951C1.17176 8.02919 1.06006 8.12335 1.01746 8.2533C0.975578 8.38253 1.0103 8.52502 1.10804 8.61988L5.79452 13.1879L4.68797 19.6382C4.66505 19.7724 4.72019 19.9081 4.83009 19.9883C4.94071 20.0692 5.08713 20.0796 5.20706 20.0155L11.0001 16.9704L16.7924 20.0155C16.8447 20.0431 16.9023 20.0567 16.9593 20.0567C17.0334 20.0567 17.1071 20.0338 17.1698 19.9883C17.28 19.9081 17.3351 19.7724 17.3119 19.6382L16.2057 13.1882L20.8922 8.61988C20.9895 8.5243 21.0246 8.38218 20.9824 8.25294Z" stroke="#444444" stroke-width="2" stroke-linejoin="round"/>
</svg>
